<svg width="30" height="30" viewBox="0 0 30 30" fill="none" xmlns="http://www.w3.org/2000/svg">
<path d="M15 0C23.2843 0 30 6.71573 30 15C30 23.2843 23.2843 30 15 30C6.71573 30 0 23.2843 0 15C0 6.71573 6.71573 0 15 0ZM20.3281 8.93164C20.2081 9.8316 20.0104 10.744 19.7344 11.668C19.4704 12.592 19.1457 13.4623 18.7617 14.2783C18.3778 15.0942 17.9523 15.8024 17.4844 16.4023C16.8844 17.1703 16.1884 17.8663 15.3965 18.4902C14.6166 19.1142 13.8001 19.6478 12.9482 20.0918C12.0963 20.5238 11.2501 20.8662 10.4102 21.1182L11.9756 22.7021C12.8396 22.4021 13.6922 22.0001 14.5322 21.4961C15.3722 20.9801 16.1764 20.3858 16.9443 19.7139C17.7241 19.042 18.4259 18.2982 19.0498 17.4824C19.5418 16.8224 19.9803 16.1078 20.3643 15.3398C20.7481 14.5601 21.0776 13.7742 21.3535 12.9824C21.6415 12.1784 21.8757 11.4219 22.0557 10.7139C22.0917 10.5459 22.1458 10.3537 22.2178 10.1377C22.2897 9.90997 22.3617 9.7062 22.4336 9.52637L20.3281 8.93164ZM7.53027 9.99414C7.61426 10.1621 7.72813 10.4086 7.87207 10.7324C8.01601 11.0443 8.17193 11.3981 8.33984 11.7939C8.50784 12.1899 8.67017 12.592 8.82617 13C8.99412 13.3959 9.13784 13.7739 9.25781 14.1338C9.38981 14.4818 9.49245 14.77 9.56445 14.998L11.3818 14.332C11.2738 14.032 11.1302 13.6598 10.9502 13.2158C10.7702 12.7598 10.578 12.2859 10.374 11.7939C10.182 11.29 9.98985 10.8216 9.79785 10.3896C9.60592 9.95781 9.45005 9.60963 9.33008 9.3457L7.53027 9.99414ZM12.5879 8.8418C12.7079 9.09379 12.8515 9.43617 13.0195 9.86816C13.1995 10.2881 13.374 10.7378 13.542 11.2178C13.722 11.6977 13.8899 12.154 14.0459 12.5859C14.2019 13.0179 14.3157 13.3724 14.3877 13.6484L16.1699 13.0176C16.0859 12.7536 15.9655 12.3998 15.8096 11.9561C15.6536 11.5122 15.48 11.0502 15.2881 10.5703C15.1081 10.0784 14.928 9.62211 14.748 9.20215C14.5801 8.78217 14.442 8.46405 14.334 8.24805L12.5879 8.8418Z" fill="#EFEFEF"/>
</svg>
